<?xml version="1.0" encoding="UTF-8" standalone="no"?>
<svg
   role="img"
   viewBox="0 0 24 24"
   version="1.1"
   id="svg6"
   sodipodi:docname="github.svg"
   inkscape:version="1.1.1 (3bf5ae0d25, 2021-09-20, custom)"
   xmlns:inkscape="http://www.inkscape.org/namespaces/inkscape"
   xmlns:sodipodi="http://sodipodi.sourceforge.net/DTD/sodipodi-0.dtd"
   xmlns="http://www.w3.org/2000/svg"
   xmlns:svg="http://www.w3.org/2000/svg">
  <defs
     id="defs10" />
  <sodipodi:namedview
     id="namedview8"
     pagecolor="#ffffff"
     bordercolor="#666666"
     borderopacity="1.0"
     inkscape:pageshadow="2"
     inkscape:pageopacity="0.0"
     inkscape:pagecheckerboard="0"
     showgrid="false"
     inkscape:zoom="26.25"
     inkscape:cx="11.980952"
     inkscape:cy="11.961905"
     inkscape:window-width="1920"
     inkscape:window-height="990"
     inkscape:window-x="0"
     inkscape:window-y="0"
     inkscape:window-maximized="1"
     inkscape:current-layer="svg6" />
  <title
     id="title2">GitHub</title>
  <path
     d="M12 .297c-6.63 0-12 5.373-12 12 0 5.303 3.438 9.8 8.205 11.385.6.113.82-.258.82-.577 0-.285-.01-1.04-.015-2.04-3.338.724-4.042-1.61-4.042-1.61C4.422 18.07 3.633 17.7 3.633 17.7c-1.087-.744.084-.729.084-.729 1.205.084 1.838 1.236 1.838 1.236 1.07 1.835 2.809 1.305 3.495.998.108-.776.417-1.305.76-1.605-2.665-.3-5.466-1.332-5.466-5.93 0-1.31.465-2.38 1.235-3.22-.135-.303-.54-1.523.105-3.176 0 0 1.005-.322 3.3 1.23.96-.267 1.98-.399 3-.405 1.02.006 2.04.138 3 .405 2.28-1.552 3.285-1.23 3.285-1.23.645 1.653.24 2.873.12 3.176.765.84 1.23 1.91 1.23 3.22 0 4.61-2.805 5.625-5.475 5.92.42.36.81 1.096.81 2.22 0 1.606-.015 2.896-.015 3.286 0 .315.21.69.825.57C20.565 22.092 24 17.592 24 12.297c0-6.627-5.373-12-12-12"
     id="path4" />
  <path
     style="fill:#ffffff;stroke-width:0.0380952"
     d="M 8.1714286,23.650296 C 7.8483935,23.537917 6.976173,23.173813 6.7047619,23.038043 5.5201486,22.445458 4.4738354,21.692925 3.5408957,20.762517 1.6463154,18.873078 0.484384,16.50618 0.10890825,13.771429 0.02580242,13.166133 0.01466549,11.582532 0.0892168,10.971429 0.41780731,8.2779455 1.534735,5.9077112 3.3709995,4.0071516 3.9330891,3.4253812 4.3669211,3.0459559 4.9883722,2.5926138 8.1973501,0.25169739 12.439606,-0.323292 16.188225,1.0746014 c 3.524714,1.3143968 6.27681,4.2845327 7.316276,7.895922 1.013095,3.5197666 0.37336,7.2791996 -1.743971,10.2485246 -0.872301,1.223306 -2.110885,2.39064 -3.398625,3.20312 -0.771417,0.486713 -2.138634,1.115047 -2.667786,1.226037 -0.179948,0.03774 -0.228688,0.0338 -0.388053,-0.03139 -0.146464,-0.05992 -0.199364,-0.108166 -0.269367,-0.245685 L 14.949589,23.2 l 0.0051,-1.942857 c 0.0054,-2.038166 -0.0053,-2.203435 -0.17437,-2.704762 -0.0898,-0.266261 -0.270506,-0.597819 -0.422804,-0.775745 -0.07092,-0.08286 -0.128953,-0.158417 -0.128953,-0.167907 0,-0.0095 0.113906,-0.02893 0.253123,-0.04319 0.425135,-0.04356 1.189532,-0.212413 1.658811,-0.366435 1.625255,-0.533422 2.647461,-1.532509 3.154042,-3.082707 0.331416,-1.014171 0.437159,-2.605763 0.232991,-3.506875 C 19.354039,9.8437714 19.041616,9.199563 18.563067,8.6208072 L 18.414899,8.4416145 18.492511,8.190336 C 18.621728,7.7719825 18.670288,7.1767848 18.617618,6.656912 18.573978,6.2261562 18.444539,5.6544994 18.326889,5.372923 l -0.05634,-0.1348278 -0.278134,6.629e-4 c -0.674592,0.0016 -1.563457,0.3330408 -2.565437,0.9565897 -0.407487,0.2535859 -0.471321,0.2818533 -0.571429,0.253045 C 14.56713,6.365392 13.828013,6.225624 13.35739,6.165088 12.653023,6.0744853 11.278553,6.076 10.590476,6.1681356 10.139354,6.2285436 9.3905048,6.3711962 9.1047619,6.4511581 9.0077265,6.4783124 8.9588507,6.462141 8.7809524,6.344021 8.1669977,5.9363691 7.4554484,5.5838705 6.8571429,5.3909733 6.563459,5.296288 6.3837878,5.2635402 6.0728255,5.2480206 L 5.669461,5.2278891 5.5668522,5.5472777 C 5.2710891,6.4678937 5.235664,7.4336072 5.4698434,8.1917924 L 5.5435227,8.4303383 5.2856072,8.773795 c -0.7066922,0.9410778 -0.9969981,1.928621 -0.9493676,3.229496 0.084848,2.317353 0.8465821,3.813648 2.4102042,4.734429 0.6269973,0.369225 1.7161253,0.71101 2.6249848,0.823762 0.3932449,0.04878 0.3809394,0.02838 0.1784491,0.295948 -0.2164354,0.285999 -0.3293086,0.53827 -0.4442061,0.9928 -0.080743,0.319414 -0.094378,0.34456 -0.2149886,0.396475 C 8.5868838,19.377472 8.0463261,19.485712 7.6998773,19.485151 6.7979829,19.483688 6.1803802,19.117226 5.6044095,18.241774 5.037456,17.380029 4.3452808,16.943356 3.5999237,16.977205 c -0.3158143,0.01434 -0.4570666,0.08498 -0.4570666,0.22859 0,0.104399 0.233669,0.343703 0.5344565,0.547346 0.5439653,0.368283 0.9552536,0.935269 1.3077931,1.802874 0.2892632,0.711882 0.9865162,1.31009 1.7810746,1.528074 0.5554332,0.152381 1.4630678,0.170406 2.0269204,0.04025 0.087603,-0.02022 0.1730888,-0.03719 0.1899669,-0.0377 0.016878,-5.15e-4 0.02545,0.500497 0.019048,1.113354 -0.011556,1.106218 -0.012302,1.115213 -0.1030175,1.242405 -0.050258,0.07047 -0.1482781,0.151895 -0.217824,0.180953 -0.1240019,0.05181 -0.3969014,0.06623 -0.5098461,0.02694 z"
     id="path86" />
</svg>
