<?xml version="1.0" encoding="UTF-8" standalone="no"?>
<svg
   role="img"
   viewBox="0 0 24 24"
   version="1.1"
   id="svg6"
   sodipodi:docname="linkedin.svg"
   inkscape:version="1.1.1 (3bf5ae0d25, 2021-09-20, custom)"
   xmlns:inkscape="http://www.inkscape.org/namespaces/inkscape"
   xmlns:sodipodi="http://sodipodi.sourceforge.net/DTD/sodipodi-0.dtd"
   xmlns="http://www.w3.org/2000/svg"
   xmlns:svg="http://www.w3.org/2000/svg">
  <defs
     id="defs10" />
  <sodipodi:namedview
     id="namedview8"
     pagecolor="#ffffff"
     bordercolor="#666666"
     borderopacity="1.0"
     inkscape:pageshadow="2"
     inkscape:pageopacity="0.0"
     inkscape:pagecheckerboard="0"
     showgrid="false"
     inkscape:zoom="26.25"
     inkscape:cx="11.980952"
     inkscape:cy="11.961905"
     inkscape:window-width="1920"
     inkscape:window-height="990"
     inkscape:window-x="0"
     inkscape:window-y="0"
     inkscape:window-maximized="1"
     inkscape:current-layer="svg6" />
  <title
     id="title2">LinkedIn</title>
  <path
     d="M20.447 20.452h-3.554v-5.569c0-1.328-.027-3.037-1.852-3.037-1.853 0-2.136 1.445-2.136 2.939v5.667H9.351V9h3.414v1.561h.046c.477-.9 1.637-1.85 3.37-1.85 3.601 0 4.267 2.37 4.267 5.455v6.286zM5.337 7.433c-1.144 0-2.063-.926-2.063-2.065 0-1.138.92-2.063 2.063-2.063 1.14 0 2.064.925 2.064 2.063 0 1.139-.925 2.065-2.064 2.065zm1.782 13.019H3.555V9h3.564v11.452zM22.225 0H1.771C.792 0 0 .774 0 1.729v20.542C0 23.227.792 24 1.771 24h20.451C23.2 24 24 23.227 24 22.271V1.729C24 .774 23.2 0 22.222 0h.003z"
     id="path4" />
  <path
     style="fill:#ffffff;stroke-width:0.0380952"
     d="M 1.3142857,23.911837 C 0.70595775,23.75283 0.2378117,23.281027 0.07744415,22.665335 0.02566632,22.466546 0.01904762,21.257731 0.01904762,12 0.01904762,0.55711844 0.00316179,1.3561805 0.23934891,0.91877371 0.36933349,0.67804876 0.6765603,0.37200168 0.92272415,0.2380225 1.3492535,0.00587613 0.62217398,0.0202268 11.988601,0.01961071 19.408179,0.01920854 22.434898,0.03104245 22.579077,0.06101751 23.054865,0.15993386 23.538554,0.5122224 23.761835,0.9224624 23.996603,1.3538079 23.980952,0.56260293 23.980952,12 c 0,11.437397 0.01565,10.646192 -0.219117,11.077538 -0.223281,0.41024 -0.70697,0.762528 -1.182758,0.861444 -0.144298,0.03 -3.17023,0.04134 -10.609523,0.03977 -9.666194,-0.002 -10.42529,-0.0068 -10.6552683,-0.06692 z M 7.1428571,14.72381 V 8.9714286 H 5.3333333 3.5238095 v 5.7523814 5.75238 h 1.8095238 1.8095238 z m 5.7907009,2.6 c 2.29e-4,-3.302393 0.01045,-3.542281 0.173895,-4.085715 0.283159,-0.941443 0.986848,-1.411977 2.035404,-1.361009 0.908632,0.04417 1.386161,0.474509 1.629201,1.468213 0.0548,0.224054 0.06383,0.668394 0.07503,3.692796 l 0.01274,3.438095 h 1.810837 1.810837 l -0.01502,-3.723809 c -0.01311,-3.251173 -0.0234,-3.788442 -0.081,-4.233034 -0.289271,-2.232561 -1.189518,-3.3510514 -2.995006,-3.7210731 -0.41086,-0.084203 -1.455031,-0.1158152 -1.861597,-0.05636 -1.074593,0.1571455 -2.057956,0.7511467 -2.586754,1.5625301 l -0.161173,0.247302 V 9.761587 8.9714286 H 11.047619 9.3142857 v 5.7523814 5.75238 h 1.8095243 1.809523 l 2.29e-4,-3.15238 z M 6.0525429,7.3207398 C 7.2342552,6.8887116 7.7587962,5.5078171 7.1692385,4.3809524 7.0154918,4.0870853 6.6166373,3.6888371 6.320264,3.5332686 5.732221,3.2246005 5.0289413,3.2146489 4.4190476,3.5063659 3.7464594,3.8280701 3.3165917,4.4754549 3.2691681,5.2380952 3.2042141,6.2826491 3.8914152,7.190496 4.9142857,7.4114248 c 0.2787886,0.060216 0.8499772,0.014709 1.1382572,-0.090685 z"
     id="path86" />
</svg>
